PathFileType	4	(X/Y/Z)	Walk2.trc
DataRate	CameraRate	NumFrames	NumMarkers	Units	OrigDataRate	OrigDataStartFrame	OrigNumFrames
200.000000	200.000000	4	59	mm	200.000000	493	574
Frame#	Times		RFHD		CLAV		STRN		LASI		RASI		RACR1		RUA1		RElbow		RFA1		RWRU		LACR1		LUA1		LFA1		LCAR		RTH1		RTH2		LTH3		LTH2		LTH4		LLFC		LTB1		LTB3		LTB4		LLMAL		LMT1		LToe		RTH3		LTH1		LFHD		C7		RCAR		RTH4		LWRR		RLFC		LTB2		RBack		RPSI		LMT5		LMMAL		RBHD		T10		LPSI		LElbow		RTB1		LWRU		RTB2		RCAL		RMMAL		RTB4		RToe		RMT1		RTB3		RWRR		LElbowM		LBHD		RElbowM		RMT5		RLMAL		LCAL
			X1	Y1	Z1	X2	Y2	Z2	X3	Y3	Z3	X4	Y4	Z4	X5	Y5	Z5	X6	Y6	Z6	X7	Y7	Z7	X8	Y8	Z8	X9	Y9	Z9	X10	Y10	Z10	X11	Y11	Z11	X12	Y12	Z12	X13	Y13	Z13	X14	Y14	Z14	X15	Y15	Z15	X16	Y16	Z16	X17	Y17	Z17	X18	Y18	Z18	X19	Y19	Z19	X20	Y20	Z20	X21	Y21	Z21	X22	Y22	Z22	X23	Y23	Z23	X24	Y24	Z24	X25	Y25	Z25	X26	Y26	Z26	X27	Y27	Z27	X28	Y28	Z28	X29	Y29	Z29	X30	Y30	Z30	X31	Y31	Z31	X32	Y32	Z32	X33	Y33	Z33	X34	Y34	Z34	X35	Y35	Z35	X36	Y36	Z36	X37	Y37	Z37	X38	Y38	Z38	X39	Y39	Z39	X40	Y40	Z40	X41	Y41	Z41	X42	Y42	Z42	X43	Y43	Z43	X44	Y44	Z44	X45	Y45	Z45	X46	Y46	Z46	X47	Y47	Z47	X48	Y48	Z48	X49	Y49	Z49	X50	Y50	Z50	X51	Y51	Z51	X52	Y52	Z52	X53	Y53	Z53	X54	Y54	Z54	X55	Y55	Z55	X56	Y56	Z56	X57	Y57	Z57	X58	Y58	Z58	X59	Y59	Z59

493	2.465	683.16	1570.5	24.961	628.15	1330.4	-21.687	704.32	1106.8	-13.345	659.49	930.08	-128.95	649.92	928.13	130.59	583.62	1347	152.33	574.27	1138.4	221	559.83	1031.5	249.62	652.21	905.74	244.42	652.86	793.01	254.06	559.49	1338.8	-189.37	502.06	1135.2	-224.05	483.37	893.52	-243.55	465.39	732.37	-246.27	550.14	724.92	172	611.31	637.8	124.47	652.11	564.21	-134.33	687.96	672.71	-121.61	622.45	646.64	-153.75	674.71	457.59	-121.02	711.57	362.73	-40.026	706.05	175.23	-38.042	710.83	267.2	-42.786	670.12	60.856	-82.675	819.74	36.721	-43.119	863.74	29.164	-69.651	542.86	538.3	140.77	592.9	737.31	-172.84	679.12	1567.6	-47.907	503.59	1409.7	-14.146	709.22	769.17	247.67	545.89	630.98	154.4	486.87	774.11	-206.74	520.61	442.45	127.05	687.2	268.9	-110.43	461.83	1307.4	88.875	436.57	964.83	62.229	777.84	21.711	-120.81	686.03	73.816	-2.7823	509.12	1542.9	56.009	466.35	1124.9	-2.7965	438.9	964.72	-53.764	458.18	1022.3	-226.15	466.14	326.84	64.342	427.21	784.02	-247.42	383.56	291.22	136.28	157.38	199.63	74.239	232.43	178.39	44.525	389.71	273.84	67.356	290.58	25.556	83.273	266.09	46.946	53.806	314.72	220.03	69.699	697.87	814.51	199.32	449.14	1013.2	-155.87	508.66	1548.8	-73.598	541.86	1006.1	168.88	225.31	51.278	130.97	206.07	182.38	120.72	622.04	28.534	-29.141
494	2.47	688.75	1571.2	24.247	633.72	1331	-22.317	709.68	1107.5	-13.845	665	930.77	-129.3	655.54	929	129.7	589.05	1347.9	151.59	578.79	1139.3	220.27	563.69	1032.5	248.76	655.43	906.12	244.06	655.33	793.41	253.85	565.45	1339.4	-190.1	508.66	1135.7	-224.85	490.27	893.91	-244.08	472.17	732.73	-246.71	557.26	725.3	171.3	619.75	638.81	124.33	655.73	564.3	-134.77	692.29	672.63	-122.54	626.49	646.85	-154.31	677.8	457.56	-121.43	714.14	362.45	-40.425	707	175	-38.207	712.58	266.93	-43.07	670.13	60.868	-82.67	819.68	36.819	-43.118	863.9	29.156	-69.862	552.45	538.49	140.56	597.37	737.64	-173.51	684.78	1568.3	-48.623	509.18	1410.4	-15.039	711.56	769.13	247.65	554.21	631.26	153.84	493.51	774.54	-207.16	531.35	442.9	127.08	688.77	268.72	-110.68	467.3	1308.2	88.115	441.79	965.3	61.615	777.81	21.777	-120.83	686.12	73.8	-2.782	514.68	1543.5	55.15	471.72	1125.7	-3.4474	444.25	965.49	-54.377	465.03	1022.7	-227.02	476.46	327.89	64.579	434.03	784.43	-248.14	393.46	293.35	136.68	166.37	205.04	74.995	241.09	182.09	45.298	399.38	275.75	67.785	293.8	25.965	83.644	271.03	48.864	54.5	323.8	222.76	70.253	700.71	814.53	199.23	455.64	1013.7	-156.73	514.34	1549.4	-74.466	546.14	1007.3	167.81	230.23	54.535	130.91	214.63	186.52	121.48	622.02	28.52	-29.145
495	2.475	694.33	1571.8	23.56	639.24	1331.7	-22.92	715	1108.1	-14.311	670.4	931.46	-129.66	661.09	929.91	128.9	594.42	1348.8	150.89	583.26	1140.1	219.58	567.51	1033.4	247.93	658.59	906.51	243.71	657.76	793.81	253.65	571.37	1340.1	-190.81	515.28	1136.1	-225.64	497.27	894.31	-244.61	479.1	733.09	-247.14	564.35	725.77	170.64	628.17	639.91	124.22	659.22	564.36	-135.23	696.52	672.5	-123.48	630.42	647.05	-154.87	680.74	457.5	-121.85	716.61	362.16	-40.852	707.91	174.77	-38.397	714.25	266.65	-43.381	670.12	60.872	-82.682	819.62	36.926	-43.144	864.02	29.157	-70.089	562.02	538.81	140.35	601.76	737.96	-174.16	690.42	1568.9	-49.311	514.73	1411.1	-15.905	713.85	769.1	247.61	562.5	631.66	153.27	500.25	774.97	-207.58	542.1	443.46	127.1	690.25	268.53	-110.95	472.71	1309.1	87.36	446.99	965.8	61.015	777.77	21.826	-120.85	686.19	73.793	-2.8014	520.23	1544.2	54.324	477.07	1126.4	-4.078	449.55	966.27	-54.967	471.93	1023.1	-227.91	486.84	329.05	64.75	441	784.81	-248.9	403.48	295.47	136.99	175.54	210.14	75.62	249.98	185.71	45.937	409.17	277.69	68.118	297.77	26.546	84.086	276.65	50.912	55.205	333.05	225.47	70.698	703.49	814.55	199.12	462.14	1014.2	-157.61	520.01	1550.1	-75.301	550.4	1008.5	166.78	235.75	57.861	130.83	223.42	190.53	122.12	621.99	28.505	-29.153
496	2.48	699.91	1572.5	22.902	644.72	1332.4	-23.497	720.28	1108.8	-14.747	675.72	932.15	-130.04	666.57	930.87	128.2	599.74	1349.7	150.22	587.67	1141	218.92	571.29	1034.3	247.13	661.72	906.89	243.37	660.15	794.22	253.46	577.24	1340.7	-191.49	521.9	1136.6	-226.43	504.35	894.7	-245.14	486.19	733.44	-247.57	571.41	726.33	170.01	636.54	641.1	124.13	662.6	564.4	-135.69	700.66	672.34	-124.41	634.25	647.23	-155.43	683.56	457.42	-122.28	718.99	361.87	-41.298	708.77	174.54	-38.604	715.85	266.38	-43.711	670.1	60.871	-82.706	819.56	37.038	-43.193	864.11	29.161	-70.324	571.53	539.25	140.14	606.06	738.27	-174.79	696.06	1569.6	-49.971	520.24	1411.9	-16.741	716.09	769.06	247.57	570.73	632.18	152.72	507.11	775.41	-207.98	552.81	444.15	127.1	691.67	268.33	-111.25	478.07	1309.9	86.609	452.18	966.34	60.429	777.73	21.859	-120.87	686.25	73.795	-2.8374	525.77	1545	53.532	482.4	1127.2	-4.6909	454.81	967.04	-55.53	478.86	1023.5	-228.82	497.28	330.3	64.854	448.1	785.18	-249.69	413.6	297.58	137.22	184.85	214.91	76.105	259.07	189.21	46.44	419.07	279.66	68.356	302.56	27.32	84.596	282.99	53.074	55.912	342.46	228.15	71.034	706.22	814.57	199.02	468.66	1014.6	-158.52	525.66	1550.8	-76.102	554.63	1009.6	165.79	241.91	61.215	130.75	232.41	194.39	122.63	621.95	28.489	-29.164
